# xmcd
#
# Track frame offsets: 
#        150
#        21838
#        44727
#        66021
#        81767
#        105879
#        126090
#        148471
#        167150
#        189305
#        206716
#        229609
#        251917
#        274214
#
# Disc length: 3921 seconds
#
# Revision: 2
# Processed by: cddbd v1.5.2PL0 Copyright (c) Steve Scherf et al.
# Submitted via: ExactAudioCopy v0.99pb4
#
DISCID=cd0f4f0e
DTITLE=????? - ????????
DYEAR=1900
DGENRE=World
TTITLE0=??????
TTITLE1=????
TTITLE2=?(??)
TTITLE3=??????
TTITLE4=?????
TTITLE5=????
TTITLE6=????
TTITLE7=?????
TTITLE8=????
TTITLE9=??
TTITLE10=????
TTITLE11=??
TTITLE12=??(????)
TTITLE13=????(????)
EXTD=
EXTT0=
EXTT1=
EXTT2=
EXTT3=
EXTT4=
EXTT5=
EXTT6=
EXTT7=
EXTT8=
EXTT9=
EXTT10=
EXTT11=
EXTT12=
EXTT13=
PLAYORDER=
